<svg width="28" height="32" viewBox="0 0 28 32" fill="none" xmlns="http://www.w3.org/2000/svg">
<path d="M26.8951 21.2487V9.29534C26.8945 8.77129 26.7562 8.2566 26.494 7.8029C26.2317 7.3492 25.8548 6.97244 25.4009 6.71042L14.9417 0.733736C14.4874 0.471454 13.9721 0.333374 13.4475 0.333374C12.923 0.333374 12.4077 0.471454 11.9534 0.733736L1.49417 6.71042C1.04034 6.97244 0.663382 7.3492 0.401127 7.8029C0.138872 8.2566 0.000537516 8.77129 0 9.29534V21.2487C0.000537516 21.7728 0.138872 22.2874 0.401127 22.7411C0.663382 23.1948 1.04034 23.5716 1.49417 23.8336L11.9534 29.8103C12.4077 30.0726 12.923 30.2107 13.4475 30.2107C13.9721 30.2107 14.4874 30.0726 14.9417 29.8103L25.4009 23.8336C25.8548 23.5716 26.2317 23.1948 26.494 22.7411C26.7562 22.2874 26.8945 21.7728 26.8951 21.2487Z" stroke="#3C64B1" stroke-width="2" stroke-linecap="round" stroke-linejoin="round"/>
<path d="M0.403427 7.74158L13.4475 15.2871L26.4917 7.74158" stroke="#3C64B1" stroke-width="2" stroke-linecap="round" stroke-linejoin="round"/>
<path d="M13.4475 30.3333V15.2721" stroke="#3C64B1" stroke-width="2" stroke-linecap="round" stroke-linejoin="round"/>
</svg>
