<svg width="67" height="40" viewBox="0 0 67 40" fill="none" xmlns="http://www.w3.org/2000/svg">
<path d="M42.5147 30.5614C63.5719 30.5614 65.2682 12.6468 65.4038 4.13342C65.4051 3.90184 65.3598 3.67236 65.2708 3.45856C65.1818 3.24477 65.0508 3.051 64.8856 2.88873C64.7204 2.72646 64.5243 2.59898 64.3089 2.51384C64.0935 2.4287 63.8633 2.38762 63.6317 2.39305C33.7072 2.94264 33.7072 17.4504 33.7072 30.5614V37.6074" stroke="#3C64B1" stroke-width="3" stroke-linecap="round" stroke-linejoin="round"/>
<path d="M33.7072 30.5614C33.7072 30.5614 33.7072 19.9923 47.7992 18.2308" stroke="#3C64B1" stroke-width="3" stroke-linecap="round" stroke-linejoin="round"/>
<path d="M24.8891 30.5614C3.832 30.5614 2.13566 12.6468 2.00003 4.13342C1.99878 3.90184 2.04401 3.67236 2.13302 3.45856C2.22204 3.24477 2.35304 3.051 2.51827 2.88873C2.68349 2.72646 2.87959 2.59898 3.09496 2.51384C3.31033 2.4287 3.54058 2.38762 3.7721 2.39305C33.6967 2.94264 33.6967 17.4504 33.6967 30.5614V37.6074" stroke="#3C64B1" stroke-width="3" stroke-linecap="round" stroke-linejoin="round"/>
<path d="M33.6967 30.5614C33.6967 30.5614 33.6967 19.9923 19.6046 18.2308" stroke="#3C64B1" stroke-width="3" stroke-linecap="round" stroke-linejoin="round"/>
</svg>
