<svg width="36" height="36" viewBox="0 0 36 36" fill="none" xmlns="http://www.w3.org/2000/svg">
<path d="M18.3334 34.3333C27.5382 34.3333 35.0001 26.8714 35.0001 17.6667C35.0001 8.46192 27.5382 1 18.3334 1C9.12867 1 1.66675 8.46192 1.66675 17.6667C1.66675 26.8714 9.12867 34.3333 18.3334 34.3333Z" stroke="#3C64B1" stroke-width="2" stroke-linecap="round" stroke-linejoin="round"/>
<path d="M18.3334 24.3333C22.0153 24.3333 25.0001 21.3486 25.0001 17.6667C25.0001 13.9848 22.0153 11 18.3334 11C14.6515 11 11.6667 13.9848 11.6667 17.6667C11.6667 21.3486 14.6515 24.3333 18.3334 24.3333Z" stroke="#3C64B1" stroke-width="2" stroke-linecap="round" stroke-linejoin="round"/>
<path d="M6.55005 5.8833L13.6167 12.95" stroke="#3C64B1" stroke-width="2" stroke-linecap="round" stroke-linejoin="round"/>
<path d="M23.0502 22.3834L30.1168 29.4501" stroke="#3C64B1" stroke-width="2" stroke-linecap="round" stroke-linejoin="round"/>
<path d="M23.0502 12.95L30.1168 5.8833" stroke="#3C64B1" stroke-width="2" stroke-linecap="round" stroke-linejoin="round"/>
<path d="M23.0502 12.9499L28.9335 7.06659" stroke="#3C64B1" stroke-width="2" stroke-linecap="round" stroke-linejoin="round"/>
<path d="M6.55005 29.4501L13.6167 22.3834" stroke="#3C64B1" stroke-width="2" stroke-linecap="round" stroke-linejoin="round"/>
</svg>
