<svg width="38" height="32" viewBox="0 0 38 32" fill="none" xmlns="http://www.w3.org/2000/svg">
<path d="M25 0.333374H0V22H25V0.333374Z" stroke="#3C64B1" stroke-width="2" stroke-linecap="round" stroke-linejoin="round"/>
<path d="M25 8.66663H31.6666L36.6666 13.6666V21.9999H25V8.66663Z" stroke="#3C64B1" stroke-width="2" stroke-linecap="round" stroke-linejoin="round"/>
<path d="M7.49997 30.3333C9.80116 30.3333 11.6666 28.4678 11.6666 26.1667C11.6666 23.8655 9.80116 22 7.49997 22C5.19879 22 3.33331 23.8655 3.33331 26.1667C3.33331 28.4678 5.19879 30.3333 7.49997 30.3333Z" stroke="#3C64B1" stroke-width="2" stroke-linecap="round" stroke-linejoin="round"/>
<path d="M29.1666 30.3333C31.4678 30.3333 33.3333 28.4678 33.3333 26.1667C33.3333 23.8655 31.4678 22 29.1666 22C26.8654 22 25 23.8655 25 26.1667C25 28.4678 26.8654 30.3333 29.1666 30.3333Z" stroke="#3C64B1" stroke-width="2" stroke-linecap="round" stroke-linejoin="round"/>
</svg>
