<svg width="36" height="32" viewBox="0 0 36 32" fill="none" xmlns="http://www.w3.org/2000/svg">
<path d="M31.3334 7.66669H4.66671C2.82576 7.66669 1.33337 9.15907 1.33337 11V27.6667C1.33337 29.5076 2.82576 31 4.66671 31H31.3334C33.1743 31 34.6667 29.5076 34.6667 27.6667V11C34.6667 9.15907 33.1743 7.66669 31.3334 7.66669Z" stroke="#3C64B1" stroke-width="2" stroke-linecap="round" stroke-linejoin="round"/>
<path d="M24.6667 31V4.33333C24.6667 3.44928 24.3155 2.60143 23.6904 1.97631C23.0653 1.35119 22.2174 1 21.3334 1H14.6667C13.7827 1 12.9348 1.35119 12.3097 1.97631C11.6846 2.60143 11.3334 3.44928 11.3334 4.33333V31" stroke="#3C64B1" stroke-width="2" stroke-linecap="round" stroke-linejoin="round"/>
</svg>
